<?xml version="1.0" encoding="UTF-8"?>
<svg version="1.1" xmlns="http://www.w3.org/2000/svg" width="610" height="116">
<path d="M0 0 C1.77407227 -0.01836914 1.77407227 -0.01836914 3.58398438 -0.03710938 C24.50046044 -0.07153034 24.50046044 -0.07153034 32.56640625 6.5546875 C37.21249729 11.23436474 39.46638447 15.85841718 39.5625 22.5 C39.43760873 29.62840945 36.70208208 34.77000151 32.1875 40.1875 C33.8375 40.8475 35.4875 41.5075 37.1875 42.1875 C37.1875 42.8475 37.1875 43.5075 37.1875 44.1875 C37.8475 44.1875 38.5075 44.1875 39.1875 44.1875 C43.5869661 51.61159905 44.15287665 58.68627498 43.1875 67.1875 C41.11589275 75.089867 36.20636996 81.71226109 29.171875 85.87109375 C21.29625978 89.68317315 12.5931756 88.71538005 4.0625 88.5 C2.32555307 88.47487619 0.58857099 88.45207025 -1.1484375 88.43164062 C-5.37067149 88.37698978 -9.59119123 88.29094785 -13.8125 88.1875 C-13.83562255 76.8613837 -13.85341464 65.53527297 -13.86431217 54.20913792 C-13.86954119 48.95053336 -13.87663918 43.6919449 -13.88793945 38.43334961 C-13.89876766 33.36296873 -13.90477669 28.29260338 -13.90737724 23.22221184 C-13.90923161 21.28323052 -13.91285245 19.34425009 -13.91823006 17.40527534 C-13.9254396 14.6992824 -13.92649098 11.99335444 -13.92602539 9.28735352 C-13.92962067 8.47743454 -13.93321594 7.66751556 -13.93692017 6.83305359 C-13.91915796 -2.64337676 -8.1449343 0.00428455 0 0 Z M4.1875 17.1875 C4.11424832 20.05017567 4.09511795 22.888219 4.125 25.75 C4.12951172 26.55630859 4.13402344 27.36261719 4.13867188 28.19335938 C4.15049482 30.19143756 4.16843086 32.18947783 4.1875 34.1875 C9.52448834 34.52937114 13.86580053 34.77998597 18.8125 32.5625 C21.37279673 30.35173016 21.37279673 30.35173016 22.1875 27.25 C22.1875 23.81891714 22.06106664 22.07591524 20.1875 19.1875 C16.39020621 16.9850696 7.98754667 13.38745333 4.1875 17.1875 Z M4.1875 50.1875 C4.1875 57.7775 4.1875 65.3675 4.1875 73.1875 C13.92433338 73.33710697 13.92433338 73.33710697 22.625 69.625 C24.95840439 65.98488915 25.38695338 62.47574773 25.1875 58.1875 C23.62968727 54.41595338 21.68454221 52.24836127 18.1875 50.1875 C14.68095032 49.82497603 14.68095032 49.82497603 10.9375 50 C8.71 50.061875 6.4825 50.12375 4.1875 50.1875 Z " fill="#000000" transform="translate(230.8125,14.8125)"/>
<path d="M0 0 C0.80759766 0.00483398 1.61519531 0.00966797 2.44726562 0.01464844 C28.80391049 0.27467848 28.80391049 0.27467848 37.625 8.3125 C44.92423172 16.57806027 45.602154 24.86440627 45.203125 35.56640625 C44.67878371 42.76726183 42.24962484 47.94447621 36.8125 52.6875 C34.51738281 54.83134935 34.51738281 54.83134935 34.86083984 56.98901367 C36.29123529 62.78659741 38.15932001 68.30780885 40.3125 73.875 C44.09737031 83.7264547 44.09737031 83.7264547 44.75 88.125 C42.31288386 88.31984938 39.87562602 88.50615178 37.4375 88.6875 C36.40206055 88.77161133 36.40206055 88.77161133 35.34570312 88.85742188 C32.12487726 89.09081505 29.84672655 89.15724218 26.75 88.125 C25.58325195 85.53295898 25.58325195 85.53295898 24.48828125 82.12109375 C23.89370117 80.29868164 23.89370117 80.29868164 23.28710938 78.43945312 C22.87864688 77.14721737 22.47044714 75.85489854 22.0625 74.5625 C21.64367951 73.26591976 21.2237709 71.96969045 20.80273438 70.67382812 C19.77437376 67.4941844 18.75736186 64.31134653 17.75 61.125 C14.45 61.125 11.15 61.125 7.75 61.125 C7.80329468 62.29857056 7.80329468 62.29857056 7.85766602 63.49584961 C8.01462454 67.01785206 8.16366811 70.54014519 8.3125 74.0625 C8.36857422 75.29419922 8.42464844 76.52589844 8.48242188 77.79492188 C8.53076172 78.96474609 8.57910156 80.13457031 8.62890625 81.33984375 C8.6760376 82.42386475 8.72316895 83.50788574 8.77172852 84.62475586 C8.75 87.125 8.75 87.125 7.75 88.125 C5.48493088 88.38872085 3.21196727 88.58603223 0.9375 88.75 C-0.30644531 88.84539062 -1.55039063 88.94078125 -2.83203125 89.0390625 C-6.25 89.125 -6.25 89.125 -10.25 88.125 C-10.25 59.415 -10.25 30.705 -10.25 1.125 C-7.03191249 -0.48404375 -3.53243896 -0.02169803 0 0 Z M7.75 17.125 C7.65028214 19.03958282 7.61919411 20.95782317 7.6171875 22.875 C7.61589844 24.0403125 7.61460938 25.205625 7.61328125 26.40625 C7.61714844 27.6334375 7.62101562 28.860625 7.625 30.125 C7.62113281 31.3521875 7.61726563 32.579375 7.61328125 33.84375 C7.61457031 35.0090625 7.61585937 36.174375 7.6171875 37.375 C7.61831543 38.45265625 7.61944336 39.5303125 7.62060547 40.640625 C7.46907629 43.06719997 7.46907629 43.06719997 8.75 44.125 C14.6647471 44.1872605 19.26940767 43.17886925 23.75 39.125 C26.41165242 34.66029272 27.30419144 31.09876163 26.3828125 26.05078125 C25.23622969 22.56148911 23.4312462 20.57309436 20.75 18.125 C14.09957416 15.44208177 14.09957416 15.44208177 7.75 17.125 Z " fill="#000000" transform="translate(103.25,14.875)"/>
<path d="M0 0 C6.6 0 13.2 0 20 0 C22.05299343 4.10598686 23.39104957 6.82151283 24.4375 11.05078125 C24.68725586 12.03941162 24.93701172 13.02804199 25.19433594 14.04663086 C25.59313965 15.66323608 25.59313965 15.66323608 26 17.3125 C26.60742563 19.7166392 27.21694586 22.12024978 27.828125 24.5234375 C27.99330627 25.17467087 28.15848755 25.82590424 28.32867432 26.49687195 C30.93483574 36.72974551 33.71934271 46.91621951 36.47167969 57.11050415 C37.99054821 62.73784655 39.50103919 68.36732199 41 74 C41.33966797 75.27117676 41.67933594 76.54235352 42.02929688 77.85205078 C42.4556543 79.48956299 42.4556543 79.48956299 42.890625 81.16015625 C43.13329102 82.08578369 43.37595703 83.01141113 43.62597656 83.96508789 C43.7494043 84.63660889 43.87283203 85.30812988 44 86 C43 87 43 87 41.14233398 87.11352539 C39.95619507 87.10567017 39.95619507 87.10567017 38.74609375 87.09765625 C37.89208984 87.09443359 37.03808594 87.09121094 36.15820312 87.08789062 C35.26037109 87.07951172 34.36253906 87.07113281 33.4375 87.0625 C32.53580078 87.05798828 31.63410156 87.05347656 30.70507812 87.04882812 C28.46998686 87.03700225 26.23502563 87.0205222 24 87 C23.3306277 84.20895657 22.66438908 81.41722977 22 78.625 C21.80921875 77.8309375 21.6184375 77.036875 21.421875 76.21875 C21.24140625 75.45820312 21.0609375 74.69765625 20.875 73.9140625 C20.62363281 72.8614624 20.62363281 72.8614624 20.3671875 71.78759766 C20 70 20 70 20 68 C13.07 68 6.14 68 -1 68 C-2.2726786 73.13016726 -2.2726786 73.13016726 -3.54272461 78.26098633 C-4.27763884 81.21212051 -5.03789255 84.11367764 -6 87 C-11.28 87 -16.56 87 -22 87 C-23.4020415 84.19591699 -22.57845669 82.88272892 -21.70703125 79.8984375 C-21.40603516 78.84914063 -21.10503906 77.79984375 -20.79492188 76.71875 C-20.47072266 75.6153125 -20.14652344 74.511875 -19.8125 73.375 C-17.60970887 65.7933003 -15.51691527 58.20435222 -13.62548828 50.53839111 C-11.5137174 41.99135851 -9.28250358 33.47556776 -7.0534668 24.95849609 C-6.30098912 22.08098178 -5.55185445 19.20260875 -4.80273438 16.32421875 C-4.32311975 14.48953023 -3.84330963 12.65489281 -3.36328125 10.8203125 C-3.14037918 9.96212921 -2.91747711 9.10394592 -2.68782043 8.21975708 C-1.11432744 2.22865488 -1.11432744 2.22865488 0 0 Z M9 31 C8.15583837 33.53851462 7.32452701 36.08010854 6.5 38.625 C6.26152344 39.33785156 6.02304687 40.05070312 5.77734375 40.78515625 C5.55175781 41.48769531 5.32617188 42.19023438 5.09375 42.9140625 C4.88427734 43.5529541 4.67480469 44.1918457 4.45898438 44.85009766 C3.79121424 47.61156958 3.79121424 47.61156958 4 53 C7.96 53 11.92 53 16 53 C14.44842924 45.6352108 12.89413676 38.28514138 11 31 C10.34 31 9.68 31 9 31 Z " fill="#000000" transform="translate(436,16)"/>
<path d="M0 0 C0.74886475 0.00523682 1.49772949 0.01047363 2.26928711 0.01586914 C3.36188843 0.01961548 3.36188843 0.01961548 4.4765625 0.0234375 C5.40718506 0.0325415 6.33780762 0.04164551 7.29663086 0.05102539 C11.72069336 0.08196289 11.72069336 0.08196289 16.23413086 0.11352539 C16.23413086 9.02352539 16.23413086 17.93352539 16.23413086 27.11352539 C17.71913086 25.07165039 19.20413086 23.02977539 20.73413086 20.92602539 C21.23630127 20.24822021 21.73847168 19.57041504 22.25585938 18.87207031 C24.50965361 15.7767689 26.47412982 12.80362769 28.01147461 9.28930664 C29.78978967 5.48580455 31.09018836 2.91980208 34.23413086 0.11352539 C40.45075966 -1.45270628 46.94627804 -0.62808628 53.23413086 0.11352539 C52.36345482 4.30055232 50.24636993 7.16914714 47.73413086 10.55102539 C46.82309517 11.80038458 45.91295911 13.0504002 45.00366211 14.30102539 C44.54169434 14.93395508 44.07972656 15.56688477 43.60375977 16.21899414 C40.73729319 20.18401742 37.98469528 24.22793122 35.22241211 28.26586914 C33.58267424 30.61433457 31.87506178 32.86111212 30.10913086 35.11352539 C27.98531601 37.85200399 27.98531601 37.85200399 28.40966797 40.41625977 C29.4046425 43.6713615 30.8483194 46.32042586 32.55053711 49.26977539 C32.88528549 49.85335815 33.22003387 50.43694092 33.56492615 51.03820801 C34.63565526 52.90048579 35.71616865 54.75688158 36.79663086 56.61352539 C37.49579775 57.82932685 38.19437048 59.04547019 38.89233398 60.26196289 C43.11361126 67.59420943 43.11361126 67.59420943 47.58129883 74.77758789 C48.14541725 75.65876282 48.14541725 75.65876282 48.72093201 76.55773926 C49.76289163 78.17496829 50.82019659 79.78228068 51.87841797 81.38891602 C53.23413086 84.11352539 53.23413086 84.11352539 52.23413086 88.11352539 C46.29413086 88.11352539 40.35413086 88.11352539 34.23413086 88.11352539 C33.43749023 86.56922852 32.64084961 85.02493164 31.82006836 83.43383789 C30.74992382 81.36864668 29.67960183 79.30354741 28.60913086 77.23852539 C28.08706055 76.22532227 27.56499023 75.21211914 27.02709961 74.16821289 C23.65277235 67.66950854 20.08358399 61.34276605 16.23413086 55.11352539 C16.24198608 56.55973267 16.24198608 56.55973267 16.25 58.03515625 C16.26805204 61.60025103 16.2795636 65.16534175 16.2890625 68.73046875 C16.29410226 70.27572305 16.30093405 71.82097255 16.30957031 73.36621094 C16.32165162 75.58277568 16.32736259 77.79927757 16.33178711 80.01586914 C16.33694839 80.71066879 16.34210968 81.40546844 16.34742737 82.12132263 C16.34762363 83.78581869 16.29602215 85.45018038 16.23413086 87.11352539 C14.34860556 88.99905069 11.65644255 88.24599229 9.15209961 88.25024414 C7.95520508 88.24444336 7.95520508 88.24444336 6.73413086 88.23852539 C5.93620117 88.24239258 5.13827148 88.24625977 4.31616211 88.25024414 C-1.63926147 88.24013306 -1.63926147 88.24013306 -2.76586914 87.11352539 C-2.86631967 84.44102472 -2.90203563 81.79433958 -2.89526367 79.12133789 C-2.89701599 78.28399109 -2.89876831 77.44664429 -2.90057373 76.58392334 C-2.90499315 73.80210325 -2.90205394 71.02034618 -2.89868164 68.23852539 C-2.89935465 66.31420886 -2.90032466 64.38989241 -2.90158081 62.46557617 C-2.90305791 58.42699374 -2.90090285 54.38843339 -2.89624023 50.34985352 C-2.89054294 45.16084028 -2.89382188 39.97187877 -2.8998127 34.78286743 C-2.903418 30.80761319 -2.90227987 26.8323713 -2.89968491 22.8571167 C-2.89901555 20.94325759 -2.89984436 19.02939737 -2.90216446 17.11553955 C-2.90469047 14.44556689 -2.90085112 11.77567919 -2.89526367 9.10571289 C-2.8972879 8.3067157 -2.89931213 7.50771851 -2.90139771 6.68450928 C-2.87606726 0.18489856 -2.87606726 0.18489856 0 0 Z " fill="#000000" transform="translate(542.765869140625,15.886474609375)"/>
<path d="M0 0 C1.09573586 -0.00143509 1.09573586 -0.00143509 2.21360779 -0.00289917 C3.76455776 -0.00358057 5.31551057 -0.00172909 6.86645508 0.00244141 C9.21246988 0.00773661 11.55828848 0.0025232 13.90429688 -0.00390625 C28.52066805 -0.01132186 28.52066805 -0.01132186 35.68359375 1.1328125 C37.55603356 3.00525231 36.85739767 6.06940768 36.87109375 8.5703125 C36.88527344 9.74464844 36.89945312 10.91898438 36.9140625 12.12890625 C36.68359375 15.1328125 36.68359375 15.1328125 34.68359375 17.1328125 C32.16162109 17.26806641 32.16162109 17.26806641 29.01953125 17.109375 C27.89804687 17.0578125 26.7765625 17.00625 25.62109375 16.953125 C24.44546875 16.88867188 23.26984375 16.82421875 22.05859375 16.7578125 C20.87523437 16.70109375 19.691875 16.644375 18.47265625 16.5859375 C15.54250601 16.44415604 12.61297573 16.28966798 9.68359375 16.1328125 C9.68359375 22.0728125 9.68359375 28.0128125 9.68359375 34.1328125 C11.83181641 34.11541016 11.83181641 34.11541016 14.0234375 34.09765625 C15.88932162 34.08827995 17.75520714 34.07917958 19.62109375 34.0703125 C20.56662109 34.06193359 21.51214844 34.05355469 22.48632812 34.04492188 C23.83500977 34.04008789 23.83500977 34.04008789 25.2109375 34.03515625 C26.45991821 34.02730103 26.45991821 34.02730103 27.73413086 34.01928711 C29.68359375 34.1328125 29.68359375 34.1328125 30.68359375 35.1328125 C30.78268677 37.46441305 30.81329879 39.79911192 30.80859375 42.1328125 C30.81246094 44.0509375 30.81246094 44.0509375 30.81640625 46.0078125 C30.68359375 49.1328125 30.68359375 49.1328125 29.68359375 50.1328125 C28.19487515 50.21950682 26.70214875 50.23984744 25.2109375 50.23046875 C24.40132568 50.22797119 23.59171387 50.22547363 22.75756836 50.22290039 C21.72253174 50.21379639 20.68749512 50.20469238 19.62109375 50.1953125 C16.34171875 50.1746875 13.06234375 50.1540625 9.68359375 50.1328125 C9.68359375 57.7228125 9.68359375 65.3128125 9.68359375 73.1328125 C11.16859375 72.6378125 11.16859375 72.6378125 12.68359375 72.1328125 C14.43295679 72.03928255 16.18563972 72.00211304 17.9375 72 C18.95650391 71.99871094 19.97550781 71.99742188 21.02539062 71.99609375 C22.08822266 71.99996094 23.15105469 72.00382812 24.24609375 72.0078125 C25.84614258 72.00201172 25.84614258 72.00201172 27.47851562 71.99609375 C29.00508789 71.99802734 29.00508789 71.99802734 30.5625 72 C31.96350952 72.00169189 31.96350952 72.00169189 33.39282227 72.00341797 C35.68359375 72.1328125 35.68359375 72.1328125 37.68359375 73.1328125 C37.71044787 75.44525042 37.72992216 77.7577752 37.74609375 80.0703125 C37.75769531 81.35808594 37.76929688 82.64585938 37.78125 83.97265625 C37.68359375 87.1328125 37.68359375 87.1328125 36.68359375 88.1328125 C35.24069588 88.22577065 33.7932959 88.25027763 32.34741211 88.24633789 C31.41360718 88.24621704 30.47980225 88.24609619 29.5177002 88.24597168 C28.03554016 88.23829773 28.03554016 88.23829773 26.5234375 88.23046875 C25.62016724 88.22946167 24.71689697 88.22845459 23.78625488 88.22741699 C20.39785501 88.22216762 17.00947316 88.20820648 13.62109375 88.1953125 C6.05171875 88.1746875 -1.51765625 88.1540625 -9.31640625 88.1328125 C-9.31640625 59.4228125 -9.31640625 30.7128125 -9.31640625 1.1328125 C-6.33025206 -0.36026459 -3.27359672 -0.00939728 0 0 Z " fill="#000000" transform="translate(291.31640625,14.8671875)"/>
<path d="M0 0 C18.15 0 36.3 0 55 0 C55 5.28 55 10.56 55 16 C48.73 16 42.46 16 36 16 C36 39.76 36 63.52 36 88 C30.39 88 24.78 88 19 88 C18.15462728 83.77313641 17.90619664 80.53439819 17.97827148 76.28198242 C17.98787903 75.62776306 17.99748657 74.9735437 18.00738525 74.29949951 C18.04019153 72.15137335 18.08059267 70.00346244 18.12109375 67.85546875 C18.14541287 66.36046594 18.16925552 64.86545531 18.19264221 63.37043762 C18.25530494 59.44620823 18.32442146 55.52211827 18.39489746 51.59802246 C18.46574235 47.58950113 18.53046245 43.58088139 18.59570312 39.57226562 C18.72448572 31.71473252 18.86065498 23.8573529 19 16 C12.73 16 6.46 16 0 16 C0 10.72 0 5.44 0 0 Z " fill="#000000" transform="translate(361,16)"/>
<path d="M0 0 C5.94 0 11.88 0 18 0 C19.15107996 3.45323989 19.08142811 6.03288525 19.02172852 9.67456055 C19.01212097 10.347995 19.00251343 11.02142944 18.99261475 11.715271 C18.95965754 13.93919437 18.91931291 16.16291928 18.87890625 18.38671875 C18.85460192 19.929421 18.83075851 21.47213058 18.80735779 23.0148468 C18.74454798 27.07390694 18.67547257 31.13283729 18.60510254 35.19177246 C18.53439106 39.33416842 18.46959094 43.47665636 18.40429688 47.61914062 C18.27532453 55.7461956 18.13973444 63.87312298 18 72 C18.81267334 71.96447021 19.62534668 71.92894043 20.46264648 71.89233398 C24.12072489 71.73538327 27.77908282 71.58633566 31.4375 71.4375 C32.71689453 71.38142578 33.99628906 71.32535156 35.31445312 71.26757812 C36.52939453 71.21923828 37.74433594 71.17089844 38.99609375 71.12109375 C40.68496704 71.05039673 40.68496704 71.05039673 42.40795898 70.97827148 C45 71 45 71 46 72 C46.09975032 74.51136104 46.13882183 76.98903415 46.125 79.5 C46.13080078 80.55380859 46.13080078 80.55380859 46.13671875 81.62890625 C46.12661378 86.87338622 46.12661378 86.87338622 45 88 C43.62390118 88.09795311 42.24286118 88.12798088 40.86328125 88.12939453 C39.54686646 88.13412277 39.54686646 88.13412277 38.20385742 88.13894653 C37.24970947 88.1369223 36.29556152 88.13489807 35.3125 88.1328125 C33.85324097 88.13424759 33.85324097 88.13424759 32.36450195 88.13571167 C30.303222 88.13639358 28.24193992 88.13453853 26.18066406 88.13037109 C23.01362312 88.125023 19.846724 88.13031572 16.6796875 88.13671875 C14.68229135 88.13605797 12.68489529 88.13477681 10.6875 88.1328125 C9.73335205 88.13483673 8.7792041 88.13686096 7.79614258 88.13894653 C6.91853271 88.13579437 6.04092285 88.13264221 5.13671875 88.12939453 C4.36030029 88.12859894 3.58388184 88.12780334 2.78393555 88.12698364 C1 88 1 88 0 87 C-0.09514592 84.29161914 -0.12554932 81.60881487 -0.11352539 78.90014648 C-0.11367142 78.05143982 -0.11381744 77.20273315 -0.1139679 76.32830811 C-0.11326848 73.50921109 -0.10547478 70.69017929 -0.09765625 67.87109375 C-0.09579217 65.92196183 -0.09436822 63.97282945 -0.09336853 62.0236969 C-0.08954255 56.88293168 -0.07971159 51.74219453 -0.06866455 46.60144043 C-0.05845215 41.35994852 -0.05387128 36.1184521 -0.04882812 30.87695312 C-0.03808939 20.58462108 -0.02049195 10.29231726 0 0 Z " fill="#000000" transform="translate(488,16)"/>
<path d="M0 0 C1.4583982 0.00399197 2.91679743 0.01875035 4.375 0.04296875 C5.11234375 0.04361328 5.8496875 0.04425781 6.609375 0.04492188 C12.09398191 0.08995971 12.09398191 0.08995971 14.375 1.23046875 C14.39812269 12.42620119 14.41591471 23.62192799 14.42681217 34.81767941 C14.43204116 40.0157499 14.4391391 45.21380411 14.45043945 50.41186523 C14.46126776 55.42389143 14.46727671 60.43590193 14.46987724 65.44793892 C14.47173159 67.36459157 14.4753524 69.28124332 14.48073006 71.19788933 C14.48793975 73.87274947 14.48899097 76.54754389 14.48852539 79.22241211 C14.49212067 80.02298035 14.49571594 80.82354858 14.49942017 81.64837646 C14.48905216 87.11641659 14.48905216 87.11641659 13.375 88.23046875 C10.74245541 88.52199214 8.14060028 88.74575569 5.5 88.91796875 C4.76652344 88.97791016 4.03304687 89.03785156 3.27734375 89.09960938 C-0.64206396 89.3601893 -2.2684262 89.46818461 -5.625 87.23046875 C-5.92191268 84.49003434 -6.02403858 81.97513076 -5.99731445 79.23242188 C-6.00096512 78.40628891 -6.00461578 77.58015594 -6.00837708 76.72898865 C-6.01650372 73.98969158 -6.00285514 71.25098215 -5.98828125 68.51171875 C-5.9877629 66.61364746 -5.98827964 64.71557564 -5.98979187 62.81750488 C-5.98970205 58.83610031 -5.97925313 54.85489782 -5.96118164 50.87353516 C-5.93849414 45.76192996 -5.93794934 40.65062026 -5.94469929 35.53897858 C-5.94803571 31.61856444 -5.94141536 27.69821807 -5.93157005 23.77781677 C-5.92771211 21.89269871 -5.92657229 20.00757312 -5.9281559 18.12245178 C-5.92852545 15.4909928 -5.91593756 12.8599172 -5.8996582 10.22851562 C-5.90213562 9.44403549 -5.90461304 8.65955536 -5.90716553 7.8513031 C-5.83304949 0.37085121 -5.83304949 0.37085121 0 0 Z " fill="#000000" transform="translate(190.625,14.76953125)"/>
<path d="M0 0 C0.75410156 0.00451172 1.50820312 0.00902344 2.28515625 0.01367188 C4.14847127 0.02546501 6.01174555 0.04340058 7.875 0.0625 C10.37832702 3.8662647 10.15034781 7.73330416 10.11791992 12.11987305 C10.11981827 12.92839722 10.12171661 13.73692139 10.12367249 14.56994629 C10.12737262 17.23813622 10.11668922 19.90605308 10.10546875 22.57421875 C10.10427669 24.42698637 10.10382384 26.2797546 10.1040802 28.13252258 C10.1025168 32.01197095 10.09423616 35.89132684 10.08081055 39.77075195 C10.06378536 44.75454276 10.05999729 49.73823228 10.06075573 54.72204876 C10.06048448 58.54546585 10.0550112 62.3688606 10.04775429 66.19227028 C10.04456301 68.03076826 10.04259915 69.86926879 10.04186058 71.70776939 C10.03970388 74.26966082 10.03097533 76.83144251 10.02026367 79.39331055 C10.02094345 80.54265831 10.02094345 80.54265831 10.02163696 81.71522522 C9.98947731 86.94802269 9.98947731 86.94802269 8.875 88.0625 C2.605 88.0625 -3.665 88.0625 -10.125 88.0625 C-10.125 59.3525 -10.125 30.6425 -10.125 1.0625 C-6.93675432 -0.53162284 -3.49603338 -0.03924735 0 0 Z " fill="#000000" transform="translate(165.125,14.9375)"/>
<path d="M0 0 C1.32 0 2.64 0 4 0 C3.67 2.64 3.34 5.28 3 8 C3.99 8.33 4.98 8.66 6 9 C5.67 10.32 5.34 11.64 5 13 C3.576875 12.9690625 3.576875 12.9690625 2.125 12.9375 C-0.90666283 12.77448174 -0.90666283 12.77448174 -3 14 C-3.58067317 16.41374155 -3.58067317 16.41374155 -3.9375 19.25 C-4.6196389 23.44651854 -5.3787451 26.54470946 -8 30 C-7.01 30 -6.02 30 -5 30 C-4.10711929 36.13587625 -3.81707348 42.11543123 -3.8125 48.3125 C-3.80025391 49.20517578 -3.78800781 50.09785156 -3.77539062 51.01757812 C-3.77249023 52.30245117 -3.77249023 52.30245117 -3.76953125 53.61328125 C-3.76542236 54.38454346 -3.76131348 55.15580566 -3.75708008 55.95043945 C-4 58 -4 58 -6 61 C-8.62697064 61.22137393 -11.00893964 61.28162025 -13.625 61.1875 C-14.33140625 61.17396484 -15.0378125 61.16042969 -15.765625 61.14648438 C-17.51074128 61.1111104 -19.25546608 61.05730221 -21 61 C-21.59732819 58.23735711 -22 55.83967231 -22 53 C-22.99 52.67 -23.98 52.34 -25 52 C-22.33814377 34.25429177 -13.72281745 19.74354697 -2.41796875 6.04296875 C-0.98835663 3.98322457 -0.42397408 2.4502398 0 0 Z M-20 46 C-19 48 -19 48 -19 48 Z " fill="#000000" transform="translate(63,42)"/>
<path d="M0 0 C5.54722744 0.04300176 8.46989993 1.47494127 12.80859375 4.796875 C15.01985789 6.45236687 17.2217198 7.64005165 19.6875 8.875 C25.01404639 11.75749183 29.06367044 15.62851132 31 21.4375 C31.95180719 31.52665624 30.25231666 39.29501919 26 48.4375 C24.515 47.9425 24.515 47.9425 23 47.4375 C22.67 42.1575 22.34 36.8775 22 31.4375 C17.12573726 30.21893431 16.30417259 31.24149358 12 33.4375 C9.125 33.625 9.125 33.625 7 33.4375 C7.125 31.6875 7.125 31.6875 8 29.4375 C11.0625 27.1875 11.0625 27.1875 14 25.4375 C13.67 23.4575 13.34 21.4775 13 19.4375 C13.99 19.1075 14.98 18.7775 16 18.4375 C16.61875 19.38625 17.2375 20.335 17.875 21.3125 C19.81970969 24.38195109 19.81970969 24.38195109 22 26.4375 C22.33 23.4675 22.66 20.4975 23 17.4375 C21.73555054 17.44535522 21.73555054 17.44535522 20.44555664 17.45336914 C17.32772064 17.47037826 14.20990823 17.48293406 11.09204102 17.49243164 C9.74079614 17.49747057 8.38955674 17.50430177 7.03833008 17.51293945 C5.09979566 17.52502419 3.161222 17.53019828 1.22265625 17.53515625 C-0.52905884 17.54301147 -0.52905884 17.54301147 -2.31616211 17.55102539 C-5 17.4375 -5 17.4375 -6 16.4375 C-6.09975032 13.92613896 -6.13882183 11.44846585 -6.125 8.9375 C-6.12886719 8.23496094 -6.13273438 7.53242188 -6.13671875 6.80859375 C-6.12522983 0.84584265 -5.92521235 0.27157223 0 0 Z " fill="#000000" transform="translate(15,15.5625)"/>
<path d="M0 0 C0.78890625 0.00515625 1.5778125 0.0103125 2.390625 0.015625 C8.22076437 0.09576437 8.22076437 0.09576437 9.375 1.25 C9.44820163 3.7827765 9.46727569 6.28103918 9.4375 8.8125 C9.416875 11.266875 9.39625 13.72125 9.375 16.25 C-0.195 16.25 -9.765 16.25 -19.625 16.25 C-19.625 18.23 -19.625 20.21 -19.625 22.25 C-21.73325138 26.09002931 -23.84172964 28.98003778 -27.625 31.25 C-28.285 31.25 -28.945 31.25 -29.625 31.25 C-29.41645682 23.05994053 -27.070679 17.60732825 -21.1875 11.875 C-18.40731739 10.11195737 -15.78785489 9.13265718 -12.625 8.25 C-12.521875 7.486875 -12.41875 6.72375 -12.3125 5.9375 C-10.61387941 -0.70256232 -5.97764385 -0.15782558 0 0 Z " fill="#000000" transform="translate(78.625,15.75)"/>
<path d="M0 0 C7.66666667 0 15.33333333 0 23 0 C23.61369399 4.20818739 23.90772754 7.61339258 21.51171875 11.2734375 C19.73465855 13.25285445 17.88033211 15.11966789 16 17 C15.34 17.99 14.68 18.98 14 20 C13.01 20 12.02 20 11 20 C10.56300781 19.03900391 10.56300781 19.03900391 10.1171875 18.05859375 C7.65389112 12.86088347 5.16286338 8.6002151 1.13671875 4.47265625 C0 3 0 3 0 0 Z " fill="#000000" transform="translate(36,16)"/>
<path d="M0 0 C0.74609375 3.19140625 0.74609375 3.19140625 1 7 C-0.58984375 9.52734375 -0.58984375 9.52734375 -2.9375 11.9375 C-7.53725492 17.09697549 -10.45670142 22.34697749 -13.34741211 28.60522461 C-16.20127831 34.73355054 -16.20127831 34.73355054 -19 37 C-19.33 36.67 -19.66 36.34 -20 36 C-19.80434721 24.45648549 -14.23960513 12.878761 -7 4 C-2.70731707 0 -2.70731707 0 0 0 Z " fill="#000000" transform="translate(58,43)"/>
<path d="M0 0 C1.45742463 -0.08096803 2.91612807 -0.13917774 4.375 -0.1875 C5.18710937 -0.22230469 5.99921875 -0.25710938 6.8359375 -0.29296875 C7.55007812 -0.19628906 8.26421875 -0.09960938 9 0 C11 3 11 3 11 6 C3.25531915 5.25531915 3.25531915 5.25531915 0 2 C0 1.34 0 0.68 0 0 Z " fill="#000000" transform="translate(25,16)"/>
<path d="M0 0 C1.98 0 3.96 0 6 0 C4.63016497 3.16115776 4.0109362 3.9927092 1 6 C0 5 0 5 -0.0625 2.4375 C-0.041875 1.633125 -0.02125 0.82875 0 0 Z " fill="#000000" transform="translate(61,16)"/>
</svg>
